<svg width="37" height="26" viewBox="0 0 37 26" fill="none" xmlns="http://www.w3.org/2000/svg">
<path d="M16 7H34" stroke="#FC5858" stroke-width="1.5" stroke-linecap="round"/>
<path opacity="0.34" d="M19 12H31" stroke="#FC5858" stroke-width="1.5" stroke-linecap="round"/>
<path d="M23 17H27" stroke="#FC5858" stroke-width="1.5" stroke-linecap="round"/>
<path d="M6.99982 22.3958C6.88899 22.3958 6.77816 22.355 6.69066 22.2675L3.14982 18.7267C2.98066 18.5575 2.98066 18.2775 3.14982 18.1083C3.31899 17.9392 3.59899 17.9392 3.76816 18.1083L6.99982 21.34L10.2315 18.1083C10.4007 17.9392 10.6807 17.9392 10.8498 18.1083C11.019 18.2775 11.019 18.5575 10.8498 18.7267L7.30899 22.2675C7.22149 22.355 7.11066 22.3958 6.99982 22.3958Z" fill="#FC5858"/>
<path d="M7.0625 21.604C6.78917 21.604 6.5625 21.2701 6.5625 20.8675V4.3405C6.5625 3.93788 6.78917 3.604 7.0625 3.604C7.33583 3.604 7.5625 3.93788 7.5625 4.3405V20.8675C7.5625 21.2701 7.33583 21.604 7.0625 21.604Z" fill="#FC5858"/>
</svg>
